<svg fill="none" height="512" viewBox="0 0 512 512" width="512" xmlns="http://www.w3.org/2000/svg"><path clip-rule="evenodd" d="m229.379 452.85c9.727 1.489 19.689 2.261 29.833 2.261 108.002 0 195.555-87.553 195.555-195.555 0-108.003-87.553-195.556-195.555-195.556-7.246 0-14.401.3941-21.442 1.1621 53.575 40.5889 88.997 110.8999 88.997 190.8379 0 84.04-39.151 157.44-97.388 196.85zm26.277 59.15c141.385 0 256-114.615 256-256s-114.615-256-256-256-255.99975 114.615-255.99975 256 114.61475 256 255.99975 256z" fill="#5a5861" fill-rule="evenodd"/></svg>