<svg fill="none" height="512" viewBox="0 0 512 512" width="512" xmlns="http://www.w3.org/2000/svg"><path clip-rule="evenodd" d="m280.702 254.881c3.47-2.116 6.414-6.55 8.788-11.478 31.245 12.77 53.202 42.946 53.202 78.137 0 46.75-38.75 84.649-86.55 84.649-19.622 0-37.719-6.387-52.236-17.15-4.762-2.255-8.68-4.421-11.886-6.194-4.973-2.749-8.234-4.552-10.276-4.27-5.969.823-4.236 6.315-2.661 11.304 1.069 3.389 2.066 6.546.523 7.848-1.614 1.364-6.842-3.621-12.951-9.445-8.316-7.929-18.264-17.414-22.955-14.565-3.709 2.253-.108 8.364 4.3 15.844l.327.555c1.862 3.162 4.02 6.382 5.989 9.32 4.003 5.971 7.227 10.783 5.614 11.597-1.95.984-15.536-8.186-26.985-20.917-4.419-4.913-8.699-10.239-12.677-15.188v-.001c-8.707-10.834-15.961-19.859-20.033-18.79-4.8985 1.286-1.1929 11.39 4.252 21.113 2.546 4.547 5.541 9.177 8.134 13.186v.001c4.033 6.234 7.094 10.965 5.984 11.547-1.498.783-14.679-12.07-23.6316-28.267-5.3175-9.621-9.7825-20.253-13.3973-28.86-3.9201-9.335-6.8402-16.288-8.763-16.988-6.6806-2.431-6.6806 11.19-4.0012 30.849.3495 2.565.87 5.255 1.5109 7.994 25.9842 84.073 105.8052 145.288 200.2442 145.288 115.517 0 209.161-91.588 209.161-204.568 0-107.532-84.829-195.685-192.608-203.938.136-5.0656 2.78-15.111 2.78-15.111s19.027-46.0358 20.033-55.8731c.066-.6529.145-1.3624.23-2.118 1.185-10.629 3.39-30.3919-13.612-30.3919-9.08 0-13.302 6.75464-18.131 14.4799v.0001c-1.854 2.9657-3.798 6.0745-6.14 8.999-16.868 21.0646-45.232 47.3698-61.315 61.3841-33.994 29.6209-67.346 53.9649-86.798 68.1629l-.001.001c-8.847 6.457-14.818 10.816-16.666 12.617-13.926 13.576-63.8582 103.642-63.8582 103.642s-16.1475 28.896-10.408 34.757c5.7395 5.86 19.5803 4.517 19.5803 4.517s185.9409-42.657 202.5879-46.021c4.482-.906 7.646-1.429 10.075-1.83 6.595-1.089 7.779-1.285 15.225-5.828zm-131.467-54.817c-9.981 9.487-26.534 32.132-26.534 32.132s30.764 1.895 47.707-14.21c16.944-16.106 13.062-43.553 13.062-43.553s-24.255 16.144-34.235 25.631z" fill="#0f69c2" fill-rule="evenodd"/></svg>