<svg fill="none" height="512" viewBox="0 0 512 512" width="512" xmlns="http://www.w3.org/2000/svg"><path clip-rule="evenodd" d="m88.2336 42.5656c6.1963-24.4642 28.3594-42.5656 54.7494-42.5656 19.795 0 37.212 10.1847 47.296 25.6h16.513c10.259-10.5284 24.592-17.06667 40.453-17.06667 23.254 0 43.226 14.05487 51.884 34.13337h13.825c8.663-5.4082 18.899-8.5334 29.864-8.5334 23.255 0 43.226 14.0549 51.884 34.1334h37.595c.321 0 .622.0865.881.2374 1.717-.1571 3.456-.2374 5.213-.2374 31.191 0 56.475 25.2847 56.475 56.4753v169.344l.001.314-.001.314v2.439c0 1.033-.028 2.062-.084 3.086-3.398 117.478-109.033 211.761-238.849 211.761-131.959 0-238.933-97.423-238.933-217.6 0-58.009 24.9249-110.717 65.5535-149.725-.1013 56.553.8539 115.019 5.2572 114.016 11.7904-2.688 2.5784-177.8515.4229-216.1254z" fill="#d24360" fill-rule="evenodd"/></svg>