<svg fill="none" height="512" viewBox="0 0 512 512" width="512" xmlns="http://www.w3.org/2000/svg"><path clip-rule="evenodd" d="m352.258 395.394c6.326-23.131-5.953-70.684-5.953-70.684s-8.906 38.739-22.822 53.057c-11.872 12.213-26.417 20.684-47.277 22.91 17.055-8.284 28.784-25.557 28.784-45.522 0-28.026-23.112-50.746-51.622-50.746s-51.623 22.72-51.623 50.746c0 7.654 1.725 14.913 4.812 21.421-17.832-14.206-20.636-36.982-20.636-36.982s-19.912 82.67 34.954 121.558c54.865 38.888 162.344 5.462 162.344 5.462s-153.809 108.223-267.783-9.564c-98.1792-101.466-25.6249-235.047-25.6249-235.047s-3.1334 12.392-3.1334 26.777 7.7993 25.33 7.7993 25.33 23.265-49.039 41.371-68.982c17.136-18.874 38.617-34.182 57.171-47.404 14.282-10.178 26.83-19.12 34.324-27.501 41.277-46.1543 15.968-130.223 15.968-130.223s46.53 41.02 59.52 93.9978c4.952 20.1942 1.766 43.1712-1.082 63.7182-4.624 33.356-8.361 60.309 25.044 58.56 53.982-2.827 7.073-86.053 7.073-86.053s122.452 64.36 113.304 176.922c-9.149 112.562-133.846 138.152-133.846 138.152s32.607-26.772 38.934-49.903z" fill="#f9a65a" fill-rule="evenodd"/></svg>