<svg fill="none" height="512" viewBox="0 0 512 512" width="512" xmlns="http://www.w3.org/2000/svg"><path clip-rule="evenodd" d="m178.712 477.733c75.003 0 139.215-41.685 165.724-100.777.324-.721-106.429 27.743-103.025 17.681 1.52-4.493 66.96-28.399 114.637-56.283 27.403-16.027 40.022-49.954 40.022-49.954s-46.167 22.415-69.506 28.101c-47.032 11.46-88.433 10.226-88.433 9.032 0-2.582 68.745-15.644 164.293-73.869 44.943-27.387 57.15-74.561 57.15-74.561s-49.411 29.432-79.281 39.149c-70.836 23.043-135.478 29.987-135.478 26.869 0-6.676 56.887-22.319 117.201-51.544 31.36-15.195 58.519-35.047 89.992-57.124 51.498-36.121 59.991-100.453 59.991-100.453s-50.792 32.7601-75.579 43.6394c-102.279 44.8916-192.591 68.4396-257.708 73.5376-98.296 7.696-178.712 76.279-178.712 165.324 0 89.046 80.0119 161.232 178.712 161.232z" fill="#a2bce8" fill-rule="evenodd"/></svg>