<svg fill="none" height="512" viewBox="0 0 512 512" width="512" xmlns="http://www.w3.org/2000/svg"><path clip-rule="evenodd" d="m112.764 439.754c-.139 0-.236-.137-.19-.268l130.715-369.352c.029-.0803.105-.134.19-.134h139.542c.085 0 .162.0541.19.1349l128.776 369.3521c.045.131-.052.267-.19.267h-395.105zm-112.562694 1.445c-.1403938 0-.2375912-.14-.1883453-.271l97.3396393-259.872c.0295-.079.1045-.131.1884-.131h84.577c.14 0 .237.139.189.27l-94.1247 259.872c-.0288.079-.1044.132-.1891.132z" fill="#d97d55" fill-rule="evenodd"/></svg>