<svg fill="none" height="512" viewBox="0 0 512 512" width="512" xmlns="http://www.w3.org/2000/svg"><path clip-rule="evenodd" d="m427.821 393.449c51.703-41.341 84.179-101.073 84.179-167.499 0-124.789-114.615-225.95-256-225.95s-256 101.161-256 225.95c0 64.028 30.1737 121.836 78.6553 162.951-2.9382 10.145-4.5501 21.18-4.5501 32.719 0 49.915 30.1618 90.38 67.3688 90.38 24.176 0 45.378-17.085 57.263-42.746 11.885 25.661 33.087 42.746 57.263 42.746 22.038 0 41.604-14.196 53.895-36.143 12.291 21.947 31.857 36.143 53.894 36.143 37.207 0 67.369-40.465 67.369-90.38 0-9.836-1.172-19.306-3.337-28.171zm-23.61-163.018c0 63.354-67.865 114.713-151.579 114.713-83.715 0-151.579-51.359-151.579-114.713s67.864-114.713 151.579-114.713c83.714 0 151.579 51.359 151.579 114.713z" fill="#b764cb" fill-rule="evenodd"/></svg>