<svg fill="none" height="512" viewBox="0 0 512 512" width="512" xmlns="http://www.w3.org/2000/svg"><path clip-rule="evenodd" d="m395.138 244.757c-.029-.04-.041-.09-.033-.139l32.664-190.4662c.015-.0877.092-.1518.18-.1518h10.338c.08 0 .15.0517.174.1277l73.59 233.0033c.023.072-.002.152-.062.199l-54.259 42.363c-.081.063-.198.047-.259-.036zm-396.138 126.265c0 .079.050796.149.125891.174l111.849109 36.571c.054.018.114.009.161-.023l250.009-172.6c.042-.029.07-.074.077-.124l26.81-179.8916c.017-.1104-.069-.2096-.18-.2096h-221.446c-.055 0-.106.0242-.141.0661l-167.222974 201.7291c-.027166.033-.042026.074-.042026.117zm158.583 46.063 122.193 40.027c.055.018.116.009.163-.025l145.479-104.353c.081-.057.101-.168.046-.25l-54.536-81.155c-.057-.085-.171-.107-.255-.049z" fill="#c9bc90" fill-rule="evenodd"/></svg>