<svg fill="none" height="512" viewBox="0 0 512 512" width="512" xmlns="http://www.w3.org/2000/svg"><path clip-rule="evenodd" d="m.0511107 254.527c-.0681153-.116-.0681495-.26-.0000911-.377l128.7439804-219.9657c.067-.1141.19-.1843.322-.1843h255.177c.133 0 .256.0708.323.1859l127.332 219.9661c.067.115.067.258 0 .373l-127.332 219.719c-.067.115-.19.186-.323.186h-255.177c-.132 0-.255-.07-.322-.184zm374.5658893-.312c0 65.488-53.089 118.577-118.577 118.577s-118.577-53.089-118.577-118.577c0-65.489 53.089-118.577 118.577-118.577s118.577 53.088 118.577 118.577z" fill="#5995a2" fill-rule="evenodd"/></svg>