<svg fill="none" height="43" viewBox="0 0 43 43" width="43" xmlns="http://www.w3.org/2000/svg"><g fill="#000"><path clip-rule="evenodd" d="m21.5295.530487c11.0931 0 20.1802 8.557483 20.9923 19.415413h-12.3373c-.7484-4.0907-4.3381-7.1915-8.655-7.1915s-7.9066 3.1008-8.655 7.1915h-12.337297c.812067-10.85793 9.899197-19.415413 20.992297-19.415413zm21 22.470013c-.7562 10.9127-9.8683 19.53-21 19.53s-20.24389-8.6173-21.00002-19.53h12.32582c.7011 4.1474 4.3177 7.3061 8.6742 7.3061 4.3564 0 7.9731-3.1587 8.6743-7.3061z" fill-rule="evenodd"/><path d="m21.5294 27.0305c3.0376 0 5.5001-2.4624 5.5001-5.5s-2.4625-5.5-5.5001-5.5c-3.0375 0-5.4999 2.4624-5.4999 5.5s2.4624 5.5 5.4999 5.5z"/></g></svg>