<svg fill="none" height="187" viewBox="0 0 186 187" width="186" xmlns="http://www.w3.org/2000/svg"><circle cx="92.6389" cy="93.5305" fill="#2b2a29" fill-opacity=".27" r="92.6389"/><path d="m92.4941 176.962c46.0709 0 83.4189-37.348 83.4189-83.419 0-46.0711-37.348-83.4191-83.4189-83.4191-46.0711 0-83.41915 37.348-83.41915 83.4191 0 46.071 37.34805 83.419 83.41915 83.419z" fill="#ac2421"/><path d="m92.494 170.981c42.768 0 77.438-34.67 77.438-77.438 0-42.7678-34.67-77.438-77.438-77.438-42.7678 0-77.4379 34.6702-77.4379 77.438 0 42.768 34.6701 77.438 77.4379 77.438z" fill="#c92223"/><path d="m92.4941 165c39.4649 0 71.4569-31.993 71.4569-71.457 0-39.4645-31.992-71.4568-71.4569-71.4568-39.4645 0-71.4568 31.9923-71.4568 71.4568 0 39.464 31.9923 71.457 71.4568 71.457z" fill="#c92223"/><path d="m92.4941 159.021c36.1629 0 65.4779-29.315 65.4779-65.478 0-36.1626-29.315-65.4782-65.4779-65.4782-36.1626 0-65.4782 29.3156-65.4782 65.4782 0 36.163 29.3156 65.478 65.4782 65.478z" fill="#e63739"/><g clip-rule="evenodd" fill-rule="evenodd"><path d="m147.585 157.621c-14.661 12.242-33.53 19.613-54.1224 19.613-42.0003 0-76.8363-30.642-83.3891-70.79 10.3921 10.484 25.5572 19.072 43.628 24.514 1.0734 7.988 6.0285 15.377 13.8844 19.304 12.4915 6.245 27.5792 1.378 33.7031-10.867.342-.684.646-1.375.918-2.074 28.578-.652 53.905-8.837 70.723-21.583l-.002.002-27.29 40.69z" fill="#5b5b5b"/><path d="m174.475 114.667c-9.386 36.438-42.467 63.364-81.8362 63.364-41.9978 0-76.8363-30.643-83.3866-70.791 10.3896 10.485 25.5572 19.072 43.6279 24.516 1.0735 7.989 6.0286 15.375 13.8845 19.302 12.489 6.246 27.5792 1.38 33.7024-10.867.34-.683.644-1.375.916-2.071 29.954-.684 56.332-9.641 73.092-23.453z" fill="#f3f3f3"/><path d="m166.807 124.932c-18.521 11.161-41.691 16.276-62.8 17.094-7.2093 14.347-24.7609 19.731-39.0248 12.599-7.9282-3.964-13.6523-11.218-15.5944-19.778-11.6677-3.74-23.3779-9.184-33.3856-16.563 10.5469 32.766 41.3014 55.76 76.6366 55.76 32.6912 0 61.7432-19.731 74.1682-49.112z" fill="#ebecec"/><path d="m157.448 134.278c-15.996 7.129-34.035 10.734-51.027 11.63-8.792 14.736-27.7065 20.04-43.2236 12.284-8.3027-4.151-14.4736-11.49-17.1097-20.235-7.3516-2.479-14.6658-5.619-21.5531-9.468 12.8086 24.928 38.8026 41.568 68.1043 41.568 26.8281 0 51.0821-13.981 64.8091-35.779z" fill="#f3f3f3"/><path d="m29.2576 121.983c7.0821 3.88 15.0228 7.182 23.6226 9.773 1.0734 7.989 6.0286 15.375 13.8844 19.302 12.4891 6.246 27.5792 1.38 33.7024-10.867.34-.684.644-1.375.916-2.071 18.403-.422 35.455-3.965 49.759-9.838-10.057 24.955-33.061 42.402-59.8362 42.402-28.9771 0-53.5358-20.432-62.0482-48.701z" fill="#ebecec"/><path d="m174.99 104.677c-16.426 13.797-42.383 22.851-71.959 23.829-.262-8.944-5.4045-17.524-14.0942-21.867-12.4915-6.246-27.5792-1.381-33.7026 10.866-.7889 1.578-1.388 3.203-1.8123 4.845-18.2805-5.424-33.6303-14.061-44.12228-24.6282v1.2257c11.87248 11.6755 28.12338 19.5615 43.87508 24.2365l.8637.255.2247-.871c.4144-1.616 1.001-3.183 1.7474-4.674 5.9937-11.989 20.6545-16.42 32.5369-10.479 8.0581 4.027 13.3506 12.107 13.6146 21.116l.025.871.871-.027c14.317-.474 28.81-2.856 42.36-7.564 10.51-3.649 20.922-8.882 29.572-16.004z" fill="#5b5b5b"/><path d="m92.6389 9.03052c46.6681 0 84.5001 37.83158 84.5001 84.49998 0 3.3351-.2 6.6225-.574 9.8555-16.316 14.561-42.994 24.184-73.534 25.193-.262-8.942-5.4045-17.524-14.0942-21.868-12.4915-6.246-27.5792-1.38-33.7026 10.866-.7888 1.578-1.388 3.203-1.8123 4.846-18.9295-5.617-34.7137-14.679-45.21814-25.7571-.03994-1.041-.06491-2.0844-.06491-3.1354 0-46.6684 37.83155-84.49998 84.50005-84.49998z" fill="#f3f3f3"/><path d="m50.9006 117.46c.2397-.564.4943-1.118.7664-1.665 7.1944-14.386 24.7684-19.7906 39.0522-12.651 8.4351 4.219 14.3268 12.147 15.8938 21.281 22.799-1.326 48.636-8.073 66.152-23.016.257-2.6188.387-5.2474.387-7.8785 0-44.4667-36.046-80.5134-80.5131-80.5134-44.4667 0-80.5134 36.0467-80.5134 80.5134 0 .4893.0075.9811.0175 1.4703 10.4245 10.4992 24.6959 17.8362 38.7576 22.4592z" fill="#f3f3f3"/><path d="m48.8811 112.547c8.6098-15.2545 27.8663-20.8463 43.6205-12.9679 8.4724 4.2339 14.6784 11.7729 17.2294 20.6319 20.532-1.672 43.284-7.883 59.208-20.8042.149-1.9546.227-3.9142.227-5.8763 0-42.2675-34.26-76.5268-76.5271-76.5268-42.1926 0-76.407 34.142-76.5243 76.3072 9.0291 8.6501 20.8866 14.9651 32.7665 19.2361z" fill="#ebecec"/><path d="m47.2385 107.675c10.3472-14.8734 30.425-19.9734 47.0479-11.6632 8.4596 4.2292 14.8926 11.4002 18.2106 19.9382 18.315-1.895 38.196-7.534 52.577-18.5727.07-1.2806.105-2.5637.105-3.8468 0-40.0657-32.474-72.5377-72.5402-72.5377-39.4192 0-71.4917 31.4335-72.5127 70.6081 7.6687 6.9472 17.3144 12.2471 27.1124 16.0741z" fill="#f3f3f3"/><path d="m154.6 117.3c-14.564 6.576-32.297 10.642-51.569 11.279-.262-8.942-5.4045-17.524-14.0941-21.868-12.4916-6.246-27.5792-1.38-33.7027 10.866-.7888 1.578-1.3879 3.203-1.8123 4.846-9.798-2.906-18.7523-6.738-26.5707-11.293-.5217-3.59-.7938-7.272-.7938-11.019 0-38.9801 29.2118-70.5758 65.2485-70.5758 36.0341 0 65.2461 31.5957 65.2461 70.5758 0 5.929-.679 11.688-1.952 17.189z" fill="#ebecec"/></g><path d="m69.3597 144.62c8.7722 4.386 19.3694.968 23.6694-7.633s.6745-19.128-8.0977-23.514c-8.7723-4.386-19.3695-.968-23.6695 7.633-4.3 8.6-.6745 19.128 8.0978 23.514z" fill="#5b5b5b"/><path d="m69.3623 144.268c8.4425 4.221 18.6412.932 22.7795-7.345 4.1384-8.278.6492-18.41-7.7932-22.63-8.4425-4.221-18.6412-.933-22.7795 7.345-4.1384 8.278-.6492 18.409 7.7932 22.63z" fill="#ebecec"/><path clip-rule="evenodd" d="m77.1418 146.108h-.015c-.1298 0-.2621 0-.3919-.003-2.359-.055-4.753-.649-7.0121-1.837-8.0382-4.221-11.3607-14.351-7.4191-22.629 2.7684-5.819 8.3876-9.174 14.2739-9.186h.005c.1323 0 .2621 0 .3944.005 2.359.054 4.7505.646 7.0122 1.834 8.0381 4.222 11.3582 14.354 7.419 22.632-2.7684 5.814-8.3826 9.169-14.2664 9.184z" fill="#fefefe" fill-rule="evenodd"/><path clip-rule="evenodd" d="m77.1418 146.108h-.015c-.1298 0-.2621 0-.3919-.003-2.359-.055-4.753-.649-7.0121-1.837-8.0382-4.221-11.3607-14.351-7.4191-22.629 2.7684-5.819 8.3876-9.174 14.2739-9.186h.005c.1323 0 .2621 0 .3944.005 2.359.054 4.7505.646 7.0122 1.834 1.8497.971 3.4498 2.257 4.7704 3.762 3.717 6.176 4.3835 14.099 1.0909 21.014-.2372.497-.4893.979-.7564 1.446-3.0355 3.584-7.414 5.581-11.9523 5.594z" fill="#f3f3f3" fill-rule="evenodd"/><path d="m71.5206 140.677c5.3872 2.694 11.8951.595 14.5358-4.687 2.6406-5.282.4142-11.747-4.973-14.44-5.3871-2.694-11.895-.595-14.5357 4.687s-.4142 11.747 4.9729 14.44z" fill="#5b5b5b"/><path d="m71.6655 140.031c4.8968 2.448 10.8124.541 13.2127-4.261 2.4004-4.801.3766-10.678-4.5203-13.126-4.8968-2.448-10.8124-.54-13.2127 4.261-2.4004 4.801-.3765 10.678 4.5203 13.126z" fill="#fefefe"/><path d="m72.2953 140.05c4.68 2.404 10.3335.531 12.6276-4.182 2.294-4.714.3598-10.484-4.3201-12.887-4.68-2.404-10.3336-.531-12.6276 4.183-2.294 4.713-.3599 10.483 4.3201 12.886z" fill="#d9dada"/><path clip-rule="evenodd" d="m80.6017 122.979c2.017 1.036 3.5223 2.696 4.401 4.629.5666 2.344.3594 4.882-.7639 7.194-2.0869 4.289-6.6876 6.455-11.1385 5.617-.2696-.11-.5392-.233-.8038-.367-4.6806-2.404-6.6152-8.176-4.3211-12.889s7.9482-6.587 12.6263-4.184z" fill="#ebecec" fill-rule="evenodd"/></svg>