<svg fill="none" height="181" viewBox="0 0 189 181" width="189" xmlns="http://www.w3.org/2000/svg" xmlns:xlink="http://www.w3.org/1999/xlink"><linearGradient id="a" gradientUnits="userSpaceOnUse" x1="141.966" x2="52.8681" y1="33.1779" y2="88.0539"><stop offset="0" stop-color="#58a8ff"/><stop offset="1" stop-color="#3649b0"/></linearGradient><linearGradient id="b" gradientUnits="userSpaceOnUse" x1="53.146" x2="178.175" y1="89.0213" y2="9.30654"><stop offset="0" stop-color="#b80012"/><stop offset="1" stop-color="#f20"/></linearGradient><g clip-rule="evenodd" fill-rule="evenodd"><path d="m4.11228.0000014h180.24372c4.016-.00288039 5.767 4.4502386 3.89 8.0228786-29.973 57.07472-59.945 114.14912-89.9186 171.22412-1.2535 2.387-6.1886 2.307-7.4277-.062-30.0906-57.49-60.1735-114.9755-90.266054-172.46598-1.538249-2.94567-.236638-6.7190186 3.478634-6.7190186z" fill="#2b2a29" fill-opacity=".270588"/><path d="m12 9h165l-82.6354 158z" fill="#fefefe"/><path d="m17 12h155l-77.6274 148z" fill="url(#a)"/><path d="m166.991 12h5.009l-6.845 13.1481-106.4365 65.8519-4.7185-9.0939z" fill="url(#b)"/><path d="m58 16c11.0932 0 20.1802 8.5575 20.9923 19.4154h-12.3373c-.7484-4.0907-4.3381-7.1915-8.655-7.1915s-7.9066 3.1008-8.655 7.1915h-12.3373c.8121-10.8579 9.8992-19.4154 20.9923-19.4154zm21 22.47c-.7561 10.9127-9.8683 19.53-21 19.53s-20.2439-8.6173-21-19.53h12.3257c.7012 4.1475 4.3179 7.3061 8.6743 7.3061 4.3565 0 7.9732-3.1586 8.6743-7.3061z" fill="#fefefe"/></g><path d="m58.5 42c3.0376 0 5.5-2.4624 5.5-5.5s-2.4624-5.5-5.5-5.5-5.5 2.4624-5.5 5.5 2.4624 5.5 5.5 5.5z" fill="#fefefe"/></svg>