<svg fill="none" height="181" viewBox="0 0 189 181" width="189" xmlns="http://www.w3.org/2000/svg" xmlns:xlink="http://www.w3.org/1999/xlink"><linearGradient id="a" gradientUnits="userSpaceOnUse" x1="142.159" x2="53.3224" y1="33.1779" y2="87.5404"><stop offset="0" stop-color="#9361cf"/><stop offset="1" stop-color="#321d82"/></linearGradient><linearGradient id="b" gradientUnits="userSpaceOnUse" x1="65.9193" x2="157.948" y1="107.904" y2="46.8147"><stop offset="0" stop-color="#bf27ae"/><stop offset="1" stop-color="#f668d6"/></linearGradient><g clip-rule="evenodd" fill-rule="evenodd"><path d="m4.11228.0000014h180.24372c4.016-.00288039 5.767 4.4502386 3.89 8.0228786-29.973 57.07472-59.945 114.14912-89.9186 171.22412-1.2535 2.387-6.1886 2.307-7.4277-.062-30.0906-57.49-60.1735-114.9755-90.266054-172.46598-1.538249-2.94567-.236638-6.7190186 3.478634-6.7190186z" fill="#2b2a29" fill-opacity=".270588"/><path d="m12 9h166l-83.1363 158z" fill="#fefefe"/><path d="m18 12h154l-77.1266 148z" fill="url(#a)"/><path d="m59 16c11.0931 0 20.1802 8.5575 20.9923 19.4154h-12.3373c-.7484-4.0907-4.3381-7.1915-8.655-7.1915s-7.9066 3.1008-8.655 7.1915h-12.3373c.8121-10.8579 9.8992-19.4154 20.9923-19.4154zm21 22.47c-.7561 10.9127-9.8683 19.53-21 19.53s-20.2439-8.6173-21-19.53h12.3258c.7011 4.1475 4.3178 7.3061 8.6742 7.3061s7.9732-3.1586 8.6743-7.3061z" fill="#fefefe"/></g><path d="m58.5 42c3.0375 0 5.5-2.4624 5.5-5.5s-2.4625-5.5-5.5-5.5c-3.0376 0-5.5 2.4624-5.5 5.5s2.4624 5.5 5.5 5.5z" fill="#fefefe"/><path clip-rule="evenodd" d="m78.3294 128.925 48.0186-29.5887-9.244 17.6847-34.0456 20.979zm89.6396-116.925h4.031l-7.328 14.02-105.9439 65.2821-4.7281-9.0763zm-17.397 40.9956-9.245 17.6838-70.6585 43.5396-4.7281-9.075z" fill="url(#b)" fill-rule="evenodd"/></svg>