<svg fill="none" height="170" viewBox="0 0 169 170" width="169" xmlns="http://www.w3.org/2000/svg" xmlns:xlink="http://www.w3.org/1999/xlink"><clipPath id="a"><path d="m0 .030518h169v169h-169z"/></clipPath><g clip-path="url(#a)"><path d="m84.3552 167.962c46.0708 0 83.4188-37.348 83.4188-83.419 0-46.0711-37.348-83.4191-83.4188-83.4191-46.0711 0-83.419089 37.348-83.419089 83.4191 0 46.071 37.347989 83.419 83.419089 83.419z" fill="#ac2421"/><path d="m84.3552 161.981c42.7678 0 77.4378-34.67 77.4378-77.438 0-42.7678-34.67-77.43796-77.4378-77.43796s-77.43793 34.67016-77.43793 77.43796c0 42.768 34.67013 77.438 77.43793 77.438z" fill="#c92223"/><path d="m84.3552 156c39.4648 0 71.4568-31.993 71.4568-71.457 0-39.4645-31.992-71.4568-71.4568-71.4568-39.4645 0-71.4568 31.9923-71.4568 71.4568 0 39.464 31.9923 71.457 71.4568 71.457z" fill="#c92223"/><path d="m84.3552 150.021c36.1628 0 65.4778-29.315 65.4778-65.478 0-36.1626-29.315-65.4782-65.4778-65.4782-36.1626 0-65.4781 29.3156-65.4781 65.4782 0 36.163 29.3155 65.478 65.4781 65.478z" fill="#e63739"/><g clip-rule="evenodd" fill-rule="evenodd"><path d="m139.446 148.621c-14.661 12.242-33.53 19.613-54.1222 19.613-42.0004 0-76.83636-30.642-83.38917-70.7901 10.39217 10.4841 25.55717 19.0721 43.62797 24.5141 1.0734 7.988 6.0286 15.377 13.8845 19.304 12.4915 6.245 27.5792 1.378 33.7026-10.867.342-.684.6465-1.375.9187-2.074 28.5776-.652 53.9056-8.837 70.7226-21.583l-.002.002-27.29 40.69z" fill="#5b5b5b"/><path d="m166.336 105.667c-9.386 36.438-42.467 63.364-81.836 63.364-41.9979 0-76.83634-30.643-83.38665-70.7908 10.38965 10.4848 25.55715 19.0718 43.62795 24.5158 1.0734 7.989 6.0286 15.375 13.8845 19.302 12.489 6.246 27.5792 1.38 33.7026-10.867.3395-.683.6441-1.375.9162-2.071 29.9534-.684 56.3314-9.641 73.0914-23.453z" fill="#f3f3f3"/><path d="m158.668 115.932c-18.52 11.161-41.691 16.276-62.7998 17.094-7.2094 14.347-24.7609 19.731-39.0248 12.599-7.9283-3.964-13.6523-11.218-15.5944-19.778-11.6678-3.74-23.3779-9.184-33.38563-16.563 10.54693 32.766 41.30143 55.76 76.63663 55.76 32.692 0 61.744-19.731 74.168-49.112z" fill="#ebecec"/><path d="m149.309 125.278c-15.996 7.129-34.035 10.734-51.0269 11.63-8.792 14.736-27.7065 20.04-43.2236 12.284-8.3027-4.151-14.4735-11.49-17.1096-20.235-7.3517-2.479-14.6658-5.619-21.5532-9.468 12.8086 24.928 38.8026 41.568 68.1043 41.568 26.828 0 51.082-13.981 64.809-35.779z" fill="#f3f3f3"/><path d="m21.1188 112.983c7.082 3.88 15.0227 7.182 23.6225 9.773 1.0734 7.989 6.0286 15.375 13.8845 19.302 12.489 6.246 27.5792 1.38 33.7026-10.867.3395-.684.6441-1.375.9162-2.071 18.4024-.422 35.4554-3.965 49.7584-9.838-10.057 24.955-33.061 42.402-59.836 42.402-28.9772 0-53.5358-20.432-62.0482-48.701z" fill="#ebecec"/><path d="m166.851 95.6765c-16.426 13.7975-42.383 22.8515-71.9589 23.8295-.2621-8.944-5.4045-17.524-14.0941-21.8674-12.4915-6.2457-27.5792-1.3804-33.7027 10.8664-.7888 1.578-1.3879 3.203-1.8123 4.845-18.2804-5.424-33.6302-14.0613-44.12222-24.6282v1.2257c11.87242 11.6755 28.12342 19.5615 43.87512 24.2365l.8637.255.2247-.871c.4144-1.616 1.001-3.183 1.7474-4.674 5.9936-11.9893 20.6544-16.4202 32.5368-10.479 8.0581 4.027 13.3503 12.107 13.6149 21.116l.025.871.8712-.027c14.3164-.474 28.8094-2.856 42.3594-7.564 10.51-3.649 20.922-8.882 29.572-16.0036z" fill="#5b5b5b"/><path d="m84.5.0305176c46.668 0 84.5 37.8315824 84.5 84.4999824 0 3.3351-.2 6.6227-.574 9.8554-16.316 14.5611-42.994 24.1841-73.5339 25.1931-.2621-8.942-5.4045-17.524-14.0941-21.868-12.4915-6.2457-27.5792-1.3804-33.7027 10.866-.7888 1.578-1.3879 3.203-1.8123 4.846-18.9295-5.617-34.7136-14.6785-45.218096-25.7571-.0399409-1.041-.064904-2.0844-.064904-3.1354 0-46.6684 37.8315-84.4999824 84.5-84.4999824z" fill="#f3f3f3"/><path d="m42.7617 108.46c.2397-.564.4943-1.118.7664-1.665 7.1944-14.3861 24.7684-19.7906 39.0522-12.6512 8.4351 4.2187 14.3264 12.1472 15.894 21.2812 22.7987-1.326 48.6357-8.073 66.1517-23.0161.258-2.6187.387-5.2473.387-7.8784 0-44.4667-36.046-80.51338-80.513-80.51338-44.4667 0-80.5134 36.04668-80.5134 80.51338 0 .4893.00749.9811.01748 1.4703 10.42462 10.4995 24.69592 17.8362 38.75762 22.4592z" fill="#f3f3f3"/><path d="m40.7422 103.547c8.6098-15.2545 27.8663-20.8463 43.6205-12.9679 8.4725 4.2337 14.6783 11.7729 17.2293 20.6319 20.532-1.672 43.284-7.883 59.208-20.8042.149-1.9546.227-3.9142.227-5.8763 0-42.2675-34.26-76.52678-76.527-76.52678-42.1926 0-76.40697 34.14198-76.5243 76.30718 9.0291 8.6497 20.8866 14.9653 32.7665 19.2361z" fill="#ebecec"/><path d="m39.0997 98.6746c10.3471-14.873 30.4249-19.973 47.0479-11.6628 8.4599 4.2288 14.8934 11.4007 18.2104 19.9382 18.316-1.895 38.196-7.534 52.577-18.5727.07-1.2806.105-2.5637.105-3.8468 0-40.0657-32.474-72.5377-72.54-72.5377-39.4192 0-71.4917 31.4335-72.5127 70.6081 7.6686 6.9472 17.3144 12.2468 27.1124 16.0737z" fill="#f3f3f3"/><path d="m146.461 108.3c-14.564 6.576-32.297 10.642-51.5689 11.279-.2621-8.942-5.4045-17.524-14.0941-21.868-12.4915-6.2457-27.5792-1.3804-33.7027 10.866-.7888 1.578-1.3879 3.203-1.8123 4.846-9.798-2.906-18.7523-6.738-26.5707-11.293-.5217-3.5902-.7938-7.2723-.7938-11.0192 0-38.9799 29.2118-70.5756 65.2485-70.5756 36.034 0 65.246 31.5957 65.246 70.5756 0 5.9287-.679 11.6882-1.952 17.1892z" fill="#ebecec"/></g><path d="m61.2208 135.62c8.7723 4.386 19.3695.968 23.6695-7.633s.6745-19.128-8.0978-23.514c-8.7722-4.386-19.3694-.968-23.6694 7.633-4.3 8.6-.6745 19.128 8.0977 23.514z" fill="#5b5b5b"/><path d="m61.2235 135.268c8.4424 4.221 18.6412.932 22.7795-7.345 4.1383-8.278.6492-18.41-7.7933-22.63-8.4424-4.221-18.6411-.933-22.7795 7.345-4.1383 8.278-.6492 18.409 7.7933 22.63z" fill="#ebecec"/><path clip-rule="evenodd" d="m69.0029 137.108h-.015c-.1298 0-.2621 0-.3919-.003-2.359-.055-4.7529-.649-7.0121-1.837-8.0381-4.221-11.3607-14.351-7.419-22.629 2.7684-5.819 8.3876-9.174 14.2739-9.186h.0049c.1323 0 .2622 0 .3945.005 2.359.054 4.7504.646 7.0121 1.834 8.0381 4.222 11.3582 14.354 7.419 22.632-2.7684 5.814-8.3826 9.169-14.2664 9.184z" fill="#fefefe" fill-rule="evenodd"/><path clip-rule="evenodd" d="m69.0029 137.108h-.015c-.1298 0-.2621 0-.3919-.003-2.359-.055-4.753-.649-7.0121-1.837-8.0381-4.221-11.3607-14.351-7.419-22.629 2.7684-5.819 8.3876-9.174 14.2738-9.186h.005c.1323 0 .2622 0 .3945.005 2.359.054 4.7504.646 7.0121 1.834 1.8497.971 3.4499 2.257 4.7704 3.762 3.717 6.176 4.3835 14.099 1.0909 21.014-.2371.497-.4893.979-.7564 1.446-3.0355 3.584-7.414 5.581-11.9523 5.594z" fill="#f3f3f3" fill-rule="evenodd"/><path d="m63.3818 131.677c5.3871 2.694 11.895.595 14.5357-4.687s.4142-11.747-4.9729-14.44c-5.3872-2.694-11.8951-.595-14.5358 4.687s-.4142 11.747 4.973 14.44z" fill="#5b5b5b"/><path d="m63.5266 131.031c4.8969 2.448 10.8124.541 13.2128-4.261 2.4003-4.801.3765-10.678-4.5203-13.126-4.8969-2.448-10.8124-.54-13.2128 4.261-2.4003 4.801-.3765 10.678 4.5203 13.126z" fill="#fefefe"/><path d="m64.1565 131.05c4.6799 2.404 10.3335.531 12.6275-4.182 2.2941-4.714.3599-10.484-4.3201-12.887-4.68-2.404-10.3335-.531-12.6276 4.183-2.294 4.713-.3598 10.483 4.3202 12.886z" fill="#d9dada"/><path clip-rule="evenodd" d="m72.4628 113.979c2.017 1.036 3.5223 2.696 4.401 4.629.5666 2.344.3595 4.882-.7639 7.194-2.0869 4.289-6.6876 6.455-11.1385 5.617-.2696-.11-.5392-.233-.8038-.367-4.6806-2.404-6.6152-8.176-4.3211-12.889s7.9482-6.587 12.6263-4.184z" fill="#ebecec" fill-rule="evenodd"/></g></svg>