<svg fill="none" height="181" viewBox="0 0 189 181" width="189" xmlns="http://www.w3.org/2000/svg" xmlns:xlink="http://www.w3.org/1999/xlink"><linearGradient id="a" gradientUnits="userSpaceOnUse" x1="142.159" x2="53.3224" y1="33.1779" y2="87.5404"><stop offset="0" stop-color="#577774"/><stop offset="1" stop-color="#2b2f38"/></linearGradient><linearGradient id="b" gradientUnits="userSpaceOnUse" x1="65.9433" x2="138.194" y1="103" y2="39.5288"><stop offset="0" stop-color="#b07322"/><stop offset="1" stop-color="#f1ed6f"/></linearGradient><g clip-rule="evenodd" fill-rule="evenodd"><path d="m4.11228.0000014h180.24372c4.016-.00288039 5.767 4.4502386 3.89 8.0228786-29.973 57.07472-59.945 114.14912-89.9186 171.22412-1.2535 2.387-6.1886 2.307-7.4276-.062-30.0906-57.49-60.1736-114.9755-90.266154-172.46598-1.538249-2.94567-.236638-6.7190186 3.478634-6.7190186z" fill="#2b2a29" fill-opacity=".270588"/><path d="m12 9h166l-83.1362 158z" fill="#fefefe"/><path d="m18 12h154l-77.1266 148z" fill="url(#a)"/><path d="m58 16c11.0932 0 20.1802 8.5575 20.9923 19.4154h-12.3373c-.7484-4.0907-4.3381-7.1915-8.655-7.1915s-7.9066 3.1008-8.655 7.1915h-12.3373c.8121-10.8579 9.8992-19.4154 20.9923-19.4154zm21 22.47c-.7561 10.9127-9.8682 19.53-21 19.53-11.1317 0-20.2439-8.6173-21-19.53h12.3257c.7012 4.1475 4.3179 7.3061 8.6743 7.3061 4.3565 0 7.9731-3.1586 8.6743-7.3061z" fill="#fefefe"/></g><path d="m58.5 42c3.0376 0 5.5-2.4624 5.5-5.5s-2.4624-5.5-5.5-5.5c-3.0375 0-5.5 2.4624-5.5 5.5s2.4625 5.5 5.5 5.5z" fill="#fefefe"/><path clip-rule="evenodd" d="m167.969 12h4.031l-7.328 13.99-105.9439 65.1422-4.7281-9.057zm-17.397 40.9077-9.245 17.6459-70.6585 43.4464-4.728-9.056z" fill="url(#b)" fill-rule="evenodd"/></svg>