<svg height="64" viewBox="0 0 360 360" width="64" xmlns="http://www.w3.org/2000/svg"><path d="m286.306 301.929h-17.472l26.307-219.079c.708-5.89-1.709-13.694-5.621-18.155l-53.014-60.44c-2.372-2.704-5.721-4.255-9.189-4.255s-6.816 1.551-9.188 4.255l-53.015 60.439c-3.912 4.461-6.328 12.266-5.621 18.155l26.307 219.079h-17.472c-8.412 0-15.256 6.844-15.256 15.256v18.984c0 8.412 6.844 15.256 15.256 15.256h37.118v33.143c-10.014 6.95-16.588 18.523-16.588 31.609 0 21.206 17.252 38.458 38.458 38.458s38.458-17.252 38.458-38.458c0-13.086-6.574-24.659-16.588-31.609v-33.143h37.118c8.412 0 15.256-6.844 15.256-15.256v-18.984c.002-8.412-6.842-15.255-15.254-15.255z" fill="#666" transform="translate(170 -160) rotate(45)"/></svg>